<svg version="1.2" xmlns="http://www.w3.org/2000/svg" viewBox="0 0 506 462" width="506" height="462">
	<title>blob-two-svg</title>
	<style>
		.s0 { fill: #d9a53f } 
	</style>
	<g id="Layer">
		<path id="Layer" class="s0" d="m382.8 54.2c47.3 14.7 100.8 40.3 116.8 80.4 16 40-5.6 94.4-25 148-19.4 53.7-36.7 106.6-73.2 140.6-36.4 33.9-92.1 49-134.6 31-42.5-18.1-71.9-69.3-106-104.1-34-34.7-72.8-53.1-105.3-88.6-32.6-35.6-58.9-88.4-54.2-140 4.7-51.5 40.4-101.7 87.6-116.4 47.2-14.6 106 6.3 155.9 18.6 49.8 12.2 90.8 15.9 138 30.5z"/>
	</g>
</svg>